{"title":"La Peste (2018) - 720p x265 HEVC - SPA (ENG SUBS) [BRSHNKV]","magnet":"magnet:?xt=urn:btih:58cb9535c75dc931f62c1912827f8d9f30af307d&dn=La+Peste+%282018%29+-+720p+x265+HEVC+-+SPA+%28ENG+SUBS%29+%5BBRSHNKV%5D&tr=udp%3A%2F%2Ftracker.leechers-paradise.org%3A6969&tr=udp%3A%2F%2Fzer0day.ch%3A1337&tr=udp%3A%2F%2Fopen.demonii.com%3A1337&tr=udp%3A%2F%2Ftracker.coppersurfer.tk%3A6969&tr=udp%3A%2F%2Fexodus.desync.com%3A6969","uploader":"BRSHNKV","categoryP":"video","categoryS":"hd___tv_shows","size":"442133484","seeders":"0","leechers":"0","description":"Seville, 16th century. During a terrible plague epidemic, the corpses of several murdered people are found, as an omen of the end of the world. Seville was one of the main cities of the Western world. Known as the Great Babylon, it was home to people of all races, where fifty different languages were spoken, and all the gold from America arrived into its port. It was one of the smelliest, most beautiful cities in the world, and the setting for this unique, character- driven thriller.\r\nVideo\r\nID                                       : 1\r\nFormat                                   : HEVC\r\nFormat/Info                              : High Efficiency Video Coding\r\nFormat profile                           : Main <a href=\"/cdn-cgi/l/email-protection\" class=\"__cf_email__\" data-cfemail=\"734243333f405d42\">[email&#xA0;protected]</a>@Main\r\nCodec ID                                 : hev1\r\nCodec ID/Info                            : High Efficiency Video Coding\r\nDuration                                 : 50mn 12s\r\nBit rate                                 : 1 003 Kbps\r\nWidth                                    : 1 280 pixels\r\nHeight                                   : 680 pixels\r\nDisplay aspect ratio                     : 1.882\r\nFrame rate mode                          : Constant\r\nFrame rate                               : 25.000 fps\r\nColor space                              : YUV\r\nChroma subsampling                       : 4:2:0\r\nBit depth                                : 10 bits\r\nBits/(Pixel*Frame)                       : 0.046\r\nStream size                              : 360 MiB (85%)\r\nWriting library                          : x265 1.9:[Mac OS X][clang 7.0.2][64 bit] 10bit\r\nEncoded date                             : UTC 2018-03-15 12:54:53\r\nTagged date                              : UTC 2018-03-15 12:54:53\r\nColor range                              : Limited\r\nColor primaries                          : BT.709\r\nTransfer characteristics                 : BT.709\r\nMatrix coefficients                      : BT.709\r\n\r\nAudio\r\nID                                       : 2\r\nFormat                                   : AAC\r\nFormat/Info                              : Advanced Audio Codec\r\nFormat profile                           : LC\r\nCodec ID                                 : 40\r\nDuration                                 : 50mn 12s\r\nBit rate mode                            : Variable\r\nBit rate                                 : 165 Kbps\r\nChannel(s)                               : 2 channels\r\nChannel positions                        : Front: L R\r\nSampling rate                            : 44.1 KHz\r\nCompression mode                         : Lossy\r\nStream size                              : 59.2 MiB (14%)\r\nTitle                                    : Stereo / Stereo\r\nLanguage                                 : English\r\nEncoded date                             : UTC 2018-03-15 12:54:53\r\nTagged date                              : UTC 2018-03-15 12:54:53","last_updated":"2018-03-19T12:00:18.569Z","parsed":{"xt":"urn:btih:58cb9535c75dc931f62c1912827f8d9f30af307d","dn":"La Peste (2018) - 720p x265 HEVC - SPA (ENG SUBS) [BRSHNKV]","tr":["udp://exodus.desync.com:6969","udp://open.demonii.com:1337","udp://tracker.coppersurfer.tk:6969","udp://tracker.leechers-paradise.org:6969","udp://zer0day.ch:1337"],"infoHash":"58cb9535c75dc931f62c1912827f8d9f30af307d","infoHashBuffer":{"type":"Buffer","data":[88,203,149,53,199,93,201,49,246,44,25,18,130,127,141,159,48,175,48,125]},"name":"La Peste (2018) - 720p x265 HEVC - SPA (ENG SUBS) [BRSHNKV]","announce":["udp://exodus.desync.com:6969","udp://open.demonii.com:1337","udp://tracker.coppersurfer.tk:6969","udp://tracker.leechers-paradise.org:6969","udp://zer0day.ch:1337"],"urlList":[]}}